PathFileType	4	(X/Y/Z)	C:/Users/beibeiliu/ov580/test_trc/User3\sequence.19_training_dense_left.trc
DataRate	CameraRate	NumFrames	NumMarkers	Units	OrigDataRate	OrigDataStartFrame	OrigNumFrames
120	120	17	19	mm	120	35	275
Frame#	Time	ThumbCMC			ThumbMCP			ThumbIP			ThumbTip			IndexMCP			IndexPIP			IndexTip			MiddleMCP			MiddlePIP			MiddleTip			RingMCP			RingPIP			RingTip			PinkyMCP			PinkyPIP			PinkyTip			BackHand1			BackHand2			BackHand3	
		X0	Y0	Z0	X1	Y1	Z1	X2	Y2	Z2	X3	Y3	Z3	X4	Y4	Z4	X5	Y5	Z5	X6	Y6	Z6	X7	Y7	Z7	X8	Y8	Z8	X9	Y9	Z9	X10	Y10	Z10	X11	Y11	Z11	X12	Y12	Z12	X13	Y13	Z13	X14	Y14	Z14	X15	Y15	Z15	X16	Y16	Z16	X17	Y17	Z17	X18	Y18	Z18	
34	0.283333	-155.59	-23.6785	24.7987	-130.863	-27.6799	10.772	-109.908	-28.721	-6.60421	-92.5963	-30.6384	-20.7939	-165.659	-13.3712	-52.9208	-165.646	-15.2428	-84.6367	-165.488	-17.4669	-105.001	-180.715	-40.4467	-62.5182	-175.434	-71.9061	-55.8716	-175.591	-60.8164	-17.3867	-200.448	-49.1938	-52.4879	-188.8	-77.1601	-40.802	-187.695	-63.4776	-9.04933	-218.692	-54.078	-40.8043	-201.205	-75.9627	-28.6851	-196.785	-60.8839	-2.87934	-210.397	-9.18414	-10.7628	-216.931	-9.73157	22.9454	-185.096	-4.94891	7.69832	
35	0.291667	-154.513	-25.2273	26.3637	-131.337	-28.1384	7.18625	-111.117	-30.2702	-7.08339	-91.6857	-33.2505	-19.7195	-165.059	-12.4809	-54.9171	-161.697	-14.083	-85.1563	-163.968	-16.9273	-105.344	-185.296	-41.7149	-63.0654	-175.062	-71.5709	-56.2906	-174.889	-62.7274	-18.0731	-201.987	-49.87	-52.6041	-191.685	-77.8115	-39.6658	-187.983	-65.2817	-10.9285	-217.287	-57.3638	-44.504	-202.424	-76.174	-28.6078	-201.251	-63.4469	-3.55725	-213.268	-8.63248	-13.3223	-218.675	-8.3255	20.4112	-184.544	-6.87279	9.30092	
36	0.3	-154.667	-25.7684	25.6429	-133.217	-30.1745	6.96423	-111.343	-32.5962	-6.29358	-87.9669	-33.8171	-14.2551	-169.808	-15.7018	-55.6354	-167.372	-16.1144	-80.0377	-168.422	-18.8518	-105.732	-185.688	-40.0984	-61.2145	-176.845	-71.703	-59.3517	-180.892	-66.2451	-20.0046	-204.029	-48.464	-50.9808	-195.639	-76.584	-42.759	-188.591	-62.4992	-9.04128	-217.199	-56.2357	-43.2625	-204.553	-74.7612	-30.3921	-202.671	-61.7078	-1.94125	-216.11	-10.2312	-9.86961	-217.968	-7.96626	19.6817	-184.959	-7.37653	8.65909	
37	0.308333	-156.676	-27.7742	22.672	-133.494	-31.466	5.41484	-111.968	-34.5347	-5.6004	-89.7777	-35.5644	-12.9259	-170.875	-16.9136	-59.7153	-167.969	-17.6914	-83.9745	-166.204	-20.4775	-108.321	-189.821	-40.7851	-59.4718	-182.641	-73.3576	-58.1618	-183.525	-67.4232	-20.4494	-207.426	-49.8399	-50.6293	-195.493	-78.3968	-38.7374	-193.9	-63.085	-6.57425	-224.304	-52.831	-41.4369	-210.976	-76.6621	-29.8648	-200.928	-65.6402	-5.36467	-211.946	-9.76708	-7.45199	-221.191	-8.48516	21.2151	-181.075	-7.00673	7.23343	
38	0.316667	-159.571	-28.9177	22.2697	-133.367	-33.9737	8.76795	-109.95	-35.2826	-5.709	-94.4273	-39.9123	-15.2171	-170.428	-18.1355	-55.4826	-165.903	-19.5078	-84.6019	-170.86	-22.1619	-108.561	-186.741	-41.1915	-60.3021	-184.635	-74.9742	-57.0504	-185.23	-66.2118	-17.3005	-205.208	-50.9942	-51.6659	-199.467	-79.0519	-39.7873	-194.281	-66.9669	-8.61557	-222.78	-54.9371	-41.7118	-213.59	-77.3379	-29.1607	-205	-62.2877	-0.0875535	-215.877	-11.4729	-8.45277	-216.039	-8.6711	21.0599	-181.38	-6.8734	8.12986	
39	0.325	-160.916	-30.9057	21.6326	-139.383	-36.9887	7.06924	-110.824	-37.8445	-9.39047	-89.9855	-40.0855	-19.7212	-172.802	-20.5181	-61.0916	-169.821	-21.756	-82.0458	-171.726	-24.517	-110.405	-193.234	-46.0412	-62.489	-187.956	-77.1253	-54.9061	-187.834	-70.0199	-19.7662	-206.75	-51.2366	-51.0462	-202.876	-79.6246	-37.8372	-198.053	-65.6933	-5.96838	-225.195	-57.5449	-42.2456	-214.231	-77.4534	-27.7719	-207.388	-60.9365	-2.0645	-213.401	-9.69971	-9.08514	-219.129	-10.3311	21.0113	-181.403	-9.6173	9.8812	
40	0.333333	-155.647	-32.4285	21.0564	-137.007	-37.1588	4.32454	-111.564	-38.1918	-9.67811	-91.7653	-41.3845	-18.6494	-175.825	-20.8822	-61.421	-172.244	-23.8788	-85.154	-176.972	-26.0286	-108.722	-194.414	-46.5188	-61.8393	-190.315	-77.6016	-56.8255	-184.558	-68.2661	-18.2607	-211.864	-53.0099	-50.8262	-205.354	-80.9595	-39.0937	-196.649	-65.6536	-7.3212	-226.506	-53.8447	-41.7368	-218.27	-78.0697	-28.3092	-206.733	-64.2767	-3.02917	-218.139	-11.2984	-12.2508	-218.648	-10.4366	21.6177	-184.929	-9.69304	8.32688	
41	0.341667	-156.855	-31.7184	21.3138	-140.09	-38.8253	6.49261	-110.496	-39.1971	-11.7438	-94.4583	-41.7265	-22.9702	-174.746	-21.8631	-58.7669	-174.237	-23.3955	-82.886	-179.663	-26.7868	-107.67	-196.348	-47.8667	-62.6232	-191.248	-79.0431	-56.0016	-191.435	-68.4654	-17.7485	-214.773	-52.7497	-50.7536	-205.31	-80.5584	-39.4514	-197.12	-67.5629	-9.13715	-231.278	-57.0495	-41.9525	-218.653	-78.2796	-28.1129	-210.914	-62.7358	-0.240498	-216.923	-11.7963	-10.576	-216.509	-11.3711	21.4038	-183.407	-11.232	9.50397	
42	0.35	-159.895	-33.133	18.1355	-137.021	-36.8971	6.43032	-115.837	-40.0384	-14.9102	-98.154	-43.2453	-23.3087	-173.852	-20.9593	-58.67	-175.961	-24.4359	-87.1513	-179.306	-27.7906	-113.277	-196.768	-49.3718	-62.6525	-194.258	-79.448	-54.4709	-187.682	-65.3825	-15.6822	-215.407	-52.8741	-49.8632	-210.894	-80.9909	-36.1558	-199.509	-67.3888	-8.33673	-232.184	-56.6893	-41.2594	-218.985	-78.4039	-28.7326	-209.699	-65.2915	-2.68163	-217.453	-11.4292	-8.03358	-219.278	-11.708	22.799	-185.815	-11.5711	9.23391	
43	0.358333	-159.379	-31.9159	20.1015	-140.834	-37.0817	3.25786	-117.365	-39.5378	-10.6278	-95.5489	-42.2933	-23.7511	-180.015	-22.6587	-60.3476	-174.938	-24.6172	-84.085	-180.075	-28.2672	-108.384	-199.174	-46.8635	-59.6454	-191.002	-80.6621	-53.0482	-189.671	-67.5892	-17.4881	-213.999	-55.6592	-51.1372	-209.981	-81.2612	-39.2444	-202.597	-67.5317	-6.51789	-228.858	-57.1395	-42.2393	-219.961	-78.9317	-28.7783	-210.377	-68.6365	-3.2882	-216.602	-11.2351	-11.0824	-222.985	-10.4202	22.5806	-184.727	-11.0521	9.62043	
44	0.366667	-163.867	-32.1601	21.4003	-138.098	-36.895	5.27652	-112.728	-37.406	-13.4686	-98.5518	-41.2736	-24.1569	-176.8	-24.7875	-58.7154	-176.892	-27.3362	-83.3465	-181.48	-32.8201	-110.7	-195.519	-47.2026	-59.0108	-192.857	-80.0878	-55.6122	-187.579	-68.8252	-16.1413	-214.756	-58.5734	-50.623	-209.159	-83.2087	-38.4911	-201.903	-68.5418	-5.9072	-230.542	-56.0006	-39.5412	-218.435	-81.0462	-25.4696	-206.878	-65.8639	-1.4606	-218.085	-13.3353	-9.15845	-218.245	-11.2346	21.424	-184.155	-10.0417	5.74297	
45	0.375	-160.78	-31.0465	19.7452	-137.467	-35.7767	2.77259	-116.803	-38.6169	-11.0262	-98.7505	-40.3018	-18.8399	-176.097	-26.6476	-59.8923	-174.955	-31.826	-86.3032	-178.526	-37.3775	-110.341	-194.29	-52.8831	-60.2803	-191.619	-83.9369	-49.7195	-186.561	-71.5648	-14.9677	-209.722	-58.153	-49.7439	-205.068	-85.0605	-36.9644	-198.156	-68.2612	-4.13006	-228.139	-63.945	-39.8236	-218.017	-83.768	-24.1312	-207.272	-71.1274	-0.394897	-221.937	-15.315	-9.12947	-219.146	-10.2332	22.9078	-186.166	-11.0624	7.50081	
46	0.383333	-158.153	-26.7108	17.5756	-135.092	-31.3958	6.04331	-114.124	-33.1303	-9.79183	-95.2522	-35.7395	-23.1339	-174.911	-28.2253	-59.1117	-175.375	-33.722	-83.2787	-180.098	-42.4684	-108.673	-190.16	-55.2054	-60.1107	-183.519	-87.0913	-47.6372	-183.675	-72.5125	-13.3607	-212.689	-62.5752	-47.3776	-199.685	-88.5658	-33.9425	-197.389	-73.2923	-2.70021	-225.115	-68.7484	-38.7284	-212.956	-86.0849	-26.0139	-205.692	-71.9904	-0.297746	-217.732	-17.0512	-12.0632	-221.133	-12.9522	21.7246	-185.437	-10.9738	5.7188	
47	0.391667	-157.72	-23.1242	19.6298	-137.976	-28.2124	3.90883	-109.339	-24.6643	-9.64905	-92.1657	-26.259	-16.1586	-174.098	-29.9456	-62.2642	-170.57	-36.462	-82.9129	-171.794	-45.0444	-109.281	-189.014	-55.865	-57.1538	-180.716	-88.2436	-47.0241	-178.277	-71.5812	-10.4992	-205.723	-69.4027	-46.8314	-193.874	-90.0541	-31.2773	-192.094	-72.9057	-0.138055	-220.464	-69.5211	-36.2722	-206.901	-88.466	-20.069	-201.511	-69.3934	3.10091	-219.462	-21.5201	-9.77103	-220.493	-12.9071	16.8111	-187.28	-8.66222	4.20989	
48	0.4	-161.484	-18.3863	21.9241	-138.93	-22.1699	5.84446	-110.489	-16.0408	-7.80417	-93.8794	-17.8761	-19.5735	-172.692	-30.5841	-60.2127	-170.64	-39.4542	-84.0716	-169.27	-49.362	-107.366	-185.65	-59.5646	-55.4564	-168.894	-87.6545	-42.9244	-172.399	-68.0502	-7.69957	-198.471	-67.9721	-43.9158	-189.413	-92.7439	-25.0693	-184.17	-68.9674	0.291337	-214.765	-78.6894	-34.7669	-197.409	-90.1813	-15.8733	-196.498	-73.018	4.68142	-221.877	-24.6313	-11.554	-224.059	-17.8586	14.5367	-194.025	-9.6577	4.04629	
49	0.408333	-159.828	-12.906	19.0596	-141.06	-14.7947	6.07875	-115.476	-8.50136	-7.72003	-95.4151	-4.65742	-16.8724	-171.23	-32.5341	-61.2672	-164.957	-42.1408	-85.0365	-161.459	-52.3973	-105.361	-178.396	-61.8697	-54.7057	-163.519	-87.0005	-39.8703	-172.741	-67.8863	-4.46973	-193.508	-73.7533	-42.4609	-178.235	-91.4339	-20.7052	-182.688	-70.4409	4.86466	-208.915	-75.4116	-32.3744	-189.868	-90.6164	-16.0782	-192.808	-72.3381	10.9866	-220.222	-27.8289	-15.4927	-222.915	-19.9452	15.5136	-193.72	-9.42478	1.91164	
50	0.416667	-165.598	-8.09868	23.9177	-142.793	-5.67662	6.26139	-119.968	1.06549	-6.78601	-100.472	9.39908	-13.296	-166.981	-29.5706	-55.4175	-164.287	-41.954	-82.3961	-156.276	-49.8633	-102.243	-172.861	-61.6179	-50.8698	-154.584	-84.4058	-35.0818	-165.031	-67.3459	-2.63587	-186.117	-72.3798	-39.1712	-171.225	-90.0062	-14.6611	-177.669	-64.6179	8.05883	-198.412	-82.7314	-28.5219	-183.426	-92.8036	-8.9518	-184.409	-71.8466	12.5923	-219.676	-31.3947	-13.6501	-228.087	-23.3437	13.0144	-197.045	-9.05672	0.785187	
